<svg xmlns="http://www.w3.org/2000/svg" xmlns:xlink="http://www.w3.org/1999/xlink" width="600" zoomAndPan="magnify" viewBox="0 0 450 56.249996" height="75" preserveAspectRatio="xMidYMid meet" version="1.0"><defs><g/></defs><g fill="#41a099" fill-opacity="1"><g transform="translate(3.918488, 52.025375)"><g><path d="M 22.046875 -26.671875 C 24.566406 -25.503906 26.492188 -23.8125 27.828125 -21.59375 C 29.171875 -19.375 29.84375 -16.84375 29.84375 -14 C 29.84375 -10.988281 29.132812 -8.441406 27.71875 -6.359375 C 26.300781 -4.285156 24.457031 -2.707031 22.1875 -1.625 C 19.925781 -0.539062 17.515625 0 14.953125 0 C 14.953125 0 14.929688 0 14.890625 0 L 14.890625 -8.65625 C 14.929688 -8.65625 14.953125 -8.65625 14.953125 -8.65625 C 16.554688 -8.65625 17.957031 -9.144531 19.15625 -10.125 C 20.363281 -11.101562 20.96875 -12.394531 20.96875 -14 C 20.96875 -15.195312 20.65625 -16.210938 20.03125 -17.046875 C 19.40625 -17.890625 18.632812 -18.550781 17.71875 -19.03125 C 16.800781 -19.519531 15.878906 -19.785156 14.953125 -19.828125 C 14.753906 -19.828125 13.953125 -19.894531 12.546875 -20.03125 C 11.148438 -20.164062 9.570312 -20.632812 7.8125 -21.4375 C 5.320312 -22.601562 3.394531 -24.21875 2.03125 -26.28125 C 0.675781 -28.34375 0 -30.773438 0 -33.578125 C 0 -36.578125 0.707031 -39.15625 2.125 -41.3125 C 3.550781 -43.476562 5.40625 -45.140625 7.6875 -46.296875 C 9.96875 -47.460938 12.390625 -48.046875 14.953125 -48.046875 C 17.710938 -48.046875 20.191406 -47.472656 22.390625 -46.328125 C 24.597656 -45.191406 26.351562 -43.59375 27.65625 -41.53125 C 28.957031 -39.46875 29.628906 -37.078125 29.671875 -34.359375 C 29.710938 -34.273438 29.660156 -34.171875 29.515625 -34.046875 C 29.378906 -33.929688 29.210938 -33.875 29.015625 -33.875 L 21.5 -33.875 C 21.34375 -33.875 21.191406 -33.929688 21.046875 -34.046875 C 20.910156 -34.171875 20.84375 -34.273438 20.84375 -34.359375 C 20.800781 -36.078125 20.195312 -37.347656 19.03125 -38.171875 C 17.875 -38.992188 16.515625 -39.40625 14.953125 -39.40625 C 13.316406 -39.40625 11.90625 -38.910156 10.71875 -37.921875 C 9.539062 -36.941406 8.953125 -35.492188 8.953125 -33.578125 C 8.953125 -31.859375 9.570312 -30.546875 10.8125 -29.640625 C 12.050781 -28.742188 13.429688 -28.296875 14.953125 -28.296875 C 15.078125 -28.296875 15.476562 -28.273438 16.15625 -28.234375 C 16.832031 -28.191406 17.703125 -28.0625 18.765625 -27.84375 C 19.828125 -27.625 20.921875 -27.234375 22.046875 -26.671875 Z M 22.046875 -26.671875 "/></g></g></g><g fill="#41a099" fill-opacity="1"><g transform="translate(35.272135, 52.025375)"><g><path d="M 22.828125 -8.953125 L 22.828125 0 L 0.65625 0 C 0.21875 0 0 -0.179688 0 -0.546875 L 0 -47.515625 C 0 -47.867188 0.21875 -48.046875 0.65625 -48.046875 L 22.828125 -48.046875 L 22.828125 -39.34375 L 9.1875 -39.34375 L 9.1875 -28.46875 L 28.046875 -28.46875 C 28.484375 -28.46875 28.703125 -28.285156 28.703125 -27.921875 L 28.703125 -20.296875 C 28.703125 -19.941406 28.484375 -19.765625 28.046875 -19.765625 L 9.1875 -19.765625 L 9.1875 -8.953125 Z M 22.828125 -8.953125 "/></g></g></g><g fill="#41a099" fill-opacity="1"><g transform="translate(65.424497, 52.025375)"><g><path d="M 27.453125 -8.828125 L 36.640625 -8.828125 L 36.640625 -0.546875 C 36.640625 -0.179688 36.421875 0 35.984375 0 L 28.171875 0 C 25.765625 0 23.257812 -0.175781 20.65625 -0.53125 C 18.050781 -0.894531 15.53125 -1.566406 13.09375 -2.546875 C 10.65625 -3.535156 8.441406 -4.921875 6.453125 -6.703125 C 4.472656 -8.484375 2.898438 -10.785156 1.734375 -13.609375 C 0.578125 -16.429688 0 -19.90625 0 -24.03125 C 0 -28.269531 0.585938 -31.832031 1.765625 -34.71875 C 2.953125 -37.601562 4.535156 -39.925781 6.515625 -41.6875 C 8.492188 -43.445312 10.710938 -44.785156 13.171875 -45.703125 C 15.640625 -46.628906 18.164062 -47.25 20.75 -47.5625 C 23.332031 -47.882812 25.804688 -48.046875 28.171875 -48.046875 L 35.984375 -48.046875 C 36.421875 -48.046875 36.640625 -47.867188 36.640625 -47.515625 L 36.640625 -28.65625 L 27.453125 -28.65625 L 27.453125 -39.28125 C 23.960938 -39.476562 20.847656 -39.085938 18.109375 -38.109375 C 15.367188 -37.128906 13.207031 -35.488281 11.625 -33.1875 C 10.039062 -30.882812 9.25 -27.832031 9.25 -24.03125 C 9.25 -21.0625 9.675781 -18.613281 10.53125 -16.6875 C 11.394531 -14.769531 12.535156 -13.269531 13.953125 -12.1875 C 15.378906 -11.113281 16.910156 -10.320312 18.546875 -9.8125 C 20.191406 -9.3125 21.796875 -9.007812 23.359375 -8.90625 C 24.921875 -8.8125 26.285156 -8.785156 27.453125 -8.828125 Z M 27.453125 -8.828125 "/></g></g></g><g fill="#41a099" fill-opacity="1"><g transform="translate(103.925822, 52.025375)"><g/></g></g><g fill="#41a099" fill-opacity="1"><g transform="translate(118.941939, 52.025375)"><g><path d="M 23.421875 -33.75 C 23.421875 -35.195312 23.0625 -36.3125 22.34375 -37.09375 C 21.625 -37.875 20.800781 -38.429688 19.875 -38.765625 C 18.957031 -39.109375 18.140625 -39.3125 17.421875 -39.375 C 16.703125 -39.4375 16.34375 -39.46875 16.34375 -39.46875 L 9.125 -39.46875 L 9.125 -28.46875 L 16.34375 -28.46875 C 16.34375 -28.46875 16.703125 -28.5 17.421875 -28.5625 C 18.140625 -28.625 18.957031 -28.8125 19.875 -29.125 C 20.800781 -29.445312 21.625 -29.96875 22.34375 -30.6875 C 23.0625 -31.40625 23.421875 -32.425781 23.421875 -33.75 Z M 32.609375 -34.296875 C 32.609375 -31.492188 31.957031 -29.269531 30.65625 -27.625 C 29.351562 -25.988281 27.785156 -24.789062 25.953125 -24.03125 C 27.867188 -23.382812 29.328125 -22.507812 30.328125 -21.40625 C 31.328125 -20.3125 32.035156 -19.191406 32.453125 -18.046875 C 32.878906 -16.910156 33.125 -15.953125 33.1875 -15.171875 C 33.25 -14.390625 33.28125 -14 33.28125 -14 C 33.28125 -11.3125 32.804688 -9.109375 31.859375 -7.390625 C 30.921875 -5.671875 29.71875 -4.304688 28.25 -3.296875 C 26.789062 -2.296875 25.269531 -1.554688 23.6875 -1.078125 C 22.113281 -0.597656 20.65625 -0.296875 19.3125 -0.171875 C 17.96875 -0.0546875 16.976562 0 16.34375 0 L 9.1875 0 L 9.1875 -8.765625 L 16.34375 -8.765625 C 17.34375 -8.765625 18.441406 -8.894531 19.640625 -9.15625 C 20.835938 -9.414062 21.875 -9.945312 22.75 -10.75 C 23.632812 -11.550781 24.078125 -12.710938 24.078125 -14.234375 C 24.078125 -15.359375 23.816406 -16.269531 23.296875 -16.96875 C 22.773438 -17.664062 22.132812 -18.191406 21.375 -18.546875 C 20.613281 -18.910156 19.84375 -19.148438 19.0625 -19.265625 C 18.289062 -19.390625 17.644531 -19.460938 17.125 -19.484375 C 16.601562 -19.503906 16.34375 -19.515625 16.34375 -19.515625 L 0 -19.515625 L 0 -47.515625 C 0 -47.867188 0.21875 -48.046875 0.65625 -48.046875 L 16.34375 -48.046875 C 16.34375 -48.046875 16.726562 -48.023438 17.5 -47.984375 C 18.28125 -47.953125 19.289062 -47.820312 20.53125 -47.59375 C 21.78125 -47.375 23.09375 -46.992188 24.46875 -46.453125 C 25.851562 -45.910156 27.164062 -45.140625 28.40625 -44.140625 C 29.644531 -43.140625 30.65625 -41.835938 31.4375 -40.234375 C 32.21875 -38.640625 32.609375 -36.660156 32.609375 -34.296875 Z M 32.609375 -34.296875 "/></g></g></g><g fill="#41a099" fill-opacity="1"><g transform="translate(153.899455, 52.025375)"><g><path d="M 27.625 -23.90625 C 27.625 -22.664062 27.191406 -21.601562 26.328125 -20.71875 C 25.472656 -19.84375 24.40625 -19.40625 23.125 -19.40625 C 21.882812 -19.40625 20.820312 -19.84375 19.9375 -20.71875 C 19.0625 -21.601562 18.625 -22.664062 18.625 -23.90625 C 18.625 -25.1875 19.0625 -26.265625 19.9375 -27.140625 C 20.820312 -28.023438 21.882812 -28.46875 23.125 -28.46875 C 24.40625 -28.46875 25.472656 -28.023438 26.328125 -27.140625 C 27.191406 -26.265625 27.625 -25.1875 27.625 -23.90625 Z M 46.25 -24.078125 C 46.25 -21.078125 45.765625 -18.144531 44.796875 -15.28125 C 43.835938 -12.414062 42.394531 -9.832031 40.46875 -7.53125 C 38.550781 -5.226562 36.148438 -3.394531 33.265625 -2.03125 C 30.390625 -0.675781 27.03125 0 23.1875 0 C 19.300781 0 15.90625 -0.675781 13 -2.03125 C 10.101562 -3.394531 7.691406 -5.226562 5.765625 -7.53125 C 3.847656 -9.832031 2.40625 -12.414062 1.4375 -15.28125 C 0.476562 -18.144531 0 -21.078125 0 -24.078125 C 0 -27.085938 0.476562 -30.015625 1.4375 -32.859375 C 2.40625 -35.703125 3.847656 -38.265625 5.765625 -40.546875 C 7.691406 -42.828125 10.101562 -44.644531 13 -46 C 15.90625 -47.363281 19.300781 -48.046875 23.1875 -48.046875 C 27.03125 -48.046875 30.390625 -47.363281 33.265625 -46 C 36.148438 -44.644531 38.550781 -42.828125 40.46875 -40.546875 C 42.394531 -38.265625 43.835938 -35.703125 44.796875 -32.859375 C 45.765625 -30.015625 46.25 -27.085938 46.25 -24.078125 Z M 37.234375 -23.90625 C 37.234375 -25.863281 36.929688 -27.773438 36.328125 -29.640625 C 35.734375 -31.503906 34.851562 -33.1875 33.6875 -34.6875 C 32.53125 -36.1875 31.070312 -37.375 29.3125 -38.25 C 27.550781 -39.132812 25.507812 -39.578125 23.1875 -39.578125 C 20.820312 -39.578125 18.757812 -39.132812 17 -38.25 C 15.238281 -37.375 13.765625 -36.1875 12.578125 -34.6875 C 11.398438 -33.1875 10.519531 -31.503906 9.9375 -29.640625 C 9.351562 -27.773438 9.0625 -25.863281 9.0625 -23.90625 C 9.0625 -21.976562 9.351562 -20.09375 9.9375 -18.25 C 10.519531 -16.414062 11.398438 -14.753906 12.578125 -13.265625 C 13.765625 -11.785156 15.238281 -10.601562 17 -9.71875 C 18.757812 -8.84375 20.820312 -8.40625 23.1875 -8.40625 C 25.507812 -8.40625 27.550781 -8.84375 29.3125 -9.71875 C 31.070312 -10.601562 32.53125 -11.785156 33.6875 -13.265625 C 34.851562 -14.753906 35.734375 -16.414062 36.328125 -18.25 C 36.929688 -20.09375 37.234375 -21.976562 37.234375 -23.90625 Z M 37.234375 -23.90625 "/></g></g></g><g fill="#41a099" fill-opacity="1"><g transform="translate(202.431537, 52.025375)"><g><path d="M 27.625 -23.90625 C 27.625 -22.664062 27.191406 -21.601562 26.328125 -20.71875 C 25.472656 -19.84375 24.40625 -19.40625 23.125 -19.40625 C 21.882812 -19.40625 20.820312 -19.84375 19.9375 -20.71875 C 19.0625 -21.601562 18.625 -22.664062 18.625 -23.90625 C 18.625 -25.1875 19.0625 -26.265625 19.9375 -27.140625 C 20.820312 -28.023438 21.882812 -28.46875 23.125 -28.46875 C 24.40625 -28.46875 25.472656 -28.023438 26.328125 -27.140625 C 27.191406 -26.265625 27.625 -25.1875 27.625 -23.90625 Z M 46.25 -24.078125 C 46.25 -21.078125 45.765625 -18.144531 44.796875 -15.28125 C 43.835938 -12.414062 42.394531 -9.832031 40.46875 -7.53125 C 38.550781 -5.226562 36.148438 -3.394531 33.265625 -2.03125 C 30.390625 -0.675781 27.03125 0 23.1875 0 C 19.300781 0 15.90625 -0.675781 13 -2.03125 C 10.101562 -3.394531 7.691406 -5.226562 5.765625 -7.53125 C 3.847656 -9.832031 2.40625 -12.414062 1.4375 -15.28125 C 0.476562 -18.144531 0 -21.078125 0 -24.078125 C 0 -27.085938 0.476562 -30.015625 1.4375 -32.859375 C 2.40625 -35.703125 3.847656 -38.265625 5.765625 -40.546875 C 7.691406 -42.828125 10.101562 -44.644531 13 -46 C 15.90625 -47.363281 19.300781 -48.046875 23.1875 -48.046875 C 27.03125 -48.046875 30.390625 -47.363281 33.265625 -46 C 36.148438 -44.644531 38.550781 -42.828125 40.46875 -40.546875 C 42.394531 -38.265625 43.835938 -35.703125 44.796875 -32.859375 C 45.765625 -30.015625 46.25 -27.085938 46.25 -24.078125 Z M 37.234375 -23.90625 C 37.234375 -25.863281 36.929688 -27.773438 36.328125 -29.640625 C 35.734375 -31.503906 34.851562 -33.1875 33.6875 -34.6875 C 32.53125 -36.1875 31.070312 -37.375 29.3125 -38.25 C 27.550781 -39.132812 25.507812 -39.578125 23.1875 -39.578125 C 20.820312 -39.578125 18.757812 -39.132812 17 -38.25 C 15.238281 -37.375 13.765625 -36.1875 12.578125 -34.6875 C 11.398438 -33.1875 10.519531 -31.503906 9.9375 -29.640625 C 9.351562 -27.773438 9.0625 -25.863281 9.0625 -23.90625 C 9.0625 -21.976562 9.351562 -20.09375 9.9375 -18.25 C 10.519531 -16.414062 11.398438 -14.753906 12.578125 -13.265625 C 13.765625 -11.785156 15.238281 -10.601562 17 -9.71875 C 18.757812 -8.84375 20.820312 -8.40625 23.1875 -8.40625 C 25.507812 -8.40625 27.550781 -8.84375 29.3125 -9.71875 C 31.070312 -10.601562 32.53125 -11.785156 33.6875 -13.265625 C 34.851562 -14.753906 35.734375 -16.414062 36.328125 -18.25 C 36.929688 -20.09375 37.234375 -21.976562 37.234375 -23.90625 Z M 37.234375 -23.90625 "/></g></g></g><g fill="#41a099" fill-opacity="1"><g transform="translate(250.96363, 52.025375)"><g><path d="M 9.90625 -30.625 L 19.046875 -30.625 L 19.046875 -0.546875 C 19.046875 -0.179688 18.800781 0 18.3125 0 L 10.578125 0 C 10.128906 0 9.90625 -0.179688 9.90625 -0.546875 Z M 0.65625 -39.828125 C 0.21875 -39.828125 0 -40.003906 0 -40.359375 L 0 -47.515625 C 0 -47.867188 0.21875 -48.046875 0.65625 -48.046875 L 28.234375 -48.046875 C 28.671875 -48.046875 28.890625 -47.867188 28.890625 -47.515625 L 28.890625 -40.359375 C 28.890625 -40.003906 28.671875 -39.828125 28.234375 -39.828125 Z M 0.65625 -39.828125 "/></g></g></g><g fill="#41a099" fill-opacity="1"><g transform="translate(281.296181, 52.025375)"><g><path d="M 27.453125 -8.828125 L 36.640625 -8.828125 L 36.640625 -0.546875 C 36.640625 -0.179688 36.421875 0 35.984375 0 L 28.171875 0 C 25.765625 0 23.257812 -0.175781 20.65625 -0.53125 C 18.050781 -0.894531 15.53125 -1.566406 13.09375 -2.546875 C 10.65625 -3.535156 8.441406 -4.921875 6.453125 -6.703125 C 4.472656 -8.484375 2.898438 -10.785156 1.734375 -13.609375 C 0.578125 -16.429688 0 -19.90625 0 -24.03125 C 0 -28.269531 0.585938 -31.832031 1.765625 -34.71875 C 2.953125 -37.601562 4.535156 -39.925781 6.515625 -41.6875 C 8.492188 -43.445312 10.710938 -44.785156 13.171875 -45.703125 C 15.640625 -46.628906 18.164062 -47.25 20.75 -47.5625 C 23.332031 -47.882812 25.804688 -48.046875 28.171875 -48.046875 L 35.984375 -48.046875 C 36.421875 -48.046875 36.640625 -47.867188 36.640625 -47.515625 L 36.640625 -28.65625 L 27.453125 -28.65625 L 27.453125 -39.28125 C 23.960938 -39.476562 20.847656 -39.085938 18.109375 -38.109375 C 15.367188 -37.128906 13.207031 -35.488281 11.625 -33.1875 C 10.039062 -30.882812 9.25 -27.832031 9.25 -24.03125 C 9.25 -21.0625 9.675781 -18.613281 10.53125 -16.6875 C 11.394531 -14.769531 12.535156 -13.269531 13.953125 -12.1875 C 15.378906 -11.113281 16.910156 -10.320312 18.546875 -9.8125 C 20.191406 -9.3125 21.796875 -9.007812 23.359375 -8.90625 C 24.921875 -8.8125 26.285156 -8.785156 27.453125 -8.828125 Z M 27.453125 -8.828125 "/></g></g></g><g fill="#41a099" fill-opacity="1"><g transform="translate(319.797495, 52.025375)"><g><path d="M 37.71875 -0.71875 C 37.800781 -0.5625 37.78125 -0.398438 37.65625 -0.234375 C 37.539062 -0.078125 37.378906 0 37.171875 0 L 28.890625 0 C 28.609375 0 28.425781 -0.117188 28.34375 -0.359375 L 18.859375 -27.140625 L 9.484375 -0.359375 C 9.453125 -0.117188 9.253906 0 8.890625 0 L 0.65625 0 C 0.375 0 0.179688 -0.078125 0.078125 -0.234375 C -0.015625 -0.398438 -0.0195312 -0.5625 0.0625 -0.71875 L 18.265625 -47.6875 C 18.335938 -47.925781 18.535156 -48.046875 18.859375 -48.046875 C 19.179688 -48.046875 19.378906 -47.925781 19.453125 -47.6875 Z M 37.71875 -0.71875 "/></g></g></g><g fill="#41a099" fill-opacity="1"><g transform="translate(359.440053, 52.025375)"><g><path d="M 43 -11.59375 L 43 -26.84375 L 30.75 -2.28125 C 30.664062 -2.039062 30.488281 -1.921875 30.21875 -1.921875 L 22.828125 -1.921875 C 22.503906 -1.921875 22.300781 -2.039062 22.21875 -2.28125 L 9.1875 -27.515625 L 9.1875 -0.546875 C 9.1875 -0.179688 8.96875 0 8.53125 0 L 0.59375 0 C 0.195312 0 0 -0.179688 0 -0.546875 L 0 -47.515625 C 0 -47.867188 0.195312 -48.046875 0.59375 -48.046875 L 8.65625 -48.046875 C 8.96875 -48.046875 9.164062 -47.925781 9.25 -47.6875 L 26.484375 -12.5 L 42.890625 -47.6875 C 43.046875 -47.925781 43.265625 -48.046875 43.546875 -48.046875 L 51.46875 -48.046875 C 51.914062 -48.046875 52.140625 -47.867188 52.140625 -47.515625 L 52.140625 -11.59375 Z M 43 -11.59375 "/></g></g></g><g fill="#41a099" fill-opacity="1"><g transform="translate(414.218838, 52.025375)"><g><path d="M 16.15625 -48.046875 C 16.550781 -48.046875 17.347656 -47.992188 18.546875 -47.890625 C 19.753906 -47.796875 21.128906 -47.519531 22.671875 -47.0625 C 24.210938 -46.601562 25.722656 -45.863281 27.203125 -44.84375 C 28.691406 -43.820312 29.925781 -42.410156 30.90625 -40.609375 C 31.882812 -38.804688 32.375 -36.484375 32.375 -33.640625 C 32.375 -31.273438 32.015625 -29.28125 31.296875 -27.65625 C 30.578125 -26.03125 29.625 -24.695312 28.4375 -23.65625 C 27.257812 -22.625 26.007812 -21.804688 24.6875 -21.203125 C 23.363281 -20.597656 22.09375 -20.164062 20.875 -19.90625 C 19.65625 -19.644531 18.613281 -19.484375 17.75 -19.421875 C 16.882812 -19.367188 16.351562 -19.34375 16.15625 -19.34375 L 9.015625 -19.34375 L 9.015625 -0.546875 C 9.015625 -0.179688 8.8125 0 8.40625 0 L 0.59375 0 C 0.195312 0 0 -0.179688 0 -0.546875 L 0 -28.234375 L 16.15625 -28.234375 C 16.476562 -28.234375 17.007812 -28.269531 17.75 -28.34375 C 18.488281 -28.425781 19.285156 -28.628906 20.140625 -28.953125 C 21.003906 -29.273438 21.738281 -29.804688 22.34375 -30.546875 C 22.945312 -31.285156 23.25 -32.316406 23.25 -33.640625 C 23.25 -34.953125 22.9375 -35.988281 22.3125 -36.75 C 21.6875 -37.519531 20.941406 -38.070312 20.078125 -38.40625 C 19.222656 -38.75 18.425781 -38.96875 17.6875 -39.0625 C 16.945312 -39.164062 16.4375 -39.21875 16.15625 -39.21875 L 0 -39.21875 L 0 -47.515625 C 0 -47.867188 0.195312 -48.046875 0.59375 -48.046875 Z M 16.15625 -48.046875 "/></g></g></g></svg>